<?xml version="1.0" encoding="utf-8"?>
<!-- Generator: Adobe Illustrator 23.1.0, SVG Export Plug-In . SVG Version: 6.00 Build 0)  -->
<svg version="1.1" id="图层_1" xmlns="http://www.w3.org/2000/svg" xmlns:xlink="http://www.w3.org/1999/xlink" x="0px" y="0px"
	 viewBox="0 0 1417.3 1417.3" style="enable-background:new 0 0 1417.3 1417.3;" xml:space="preserve">
<style type="text/css">
	.st0{fill:#383A4E;}
</style>
<g>
	<path class="st0" d="M927.9,282.6H489.5c-113,0-204.6,91.6-204.6,204.5v438.1c0,112.9,91.6,204.5,204.6,204.5h438.4
		c113,0,204.6-91.6,204.6-204.5V487C1132.5,374.1,1040.9,282.6,927.9,282.6z M976.2,706.1c0,147.7-119.8,267.4-267.5,267.4h0
		c-147.7,0-267.5-119.7-267.5-267.4v0c0-147.7,119.8-267.4,267.5-267.4h0C856.4,438.8,976.2,558.5,976.2,706.1L976.2,706.1z
		 M985.7,492.1L985.7,492.1c-34.4,0-62.3-27.9-62.3-62.3s27.9-62.3,62.3-62.3h0c34.4,0,62.3,27.9,62.3,62.3
		S1020.1,492.1,985.7,492.1z"/>
	<path class="st0" d="M1099.5,0H317.8C142.3,0,0,142.2,0,317.6v781.2c0,175.4,142.3,317.6,317.8,317.6h781.6
		c175.5,0,317.8-142.2,317.8-317.6V317.6C1417.3,142.2,1275,0,1099.5,0z M1230.3,927.6c0,166.8-135.3,301.9-302.1,301.9H489.1
		c-166.9,0-302.1-135.2-302.1-301.9V488.8c0-166.8,135.3-301.9,302.1-301.9h439.1c166.9,0,302.1,135.2,302.1,301.9V927.6z"/>
	<path class="st0" d="M708.7,535.4c-95.5,0-173,77.4-173,172.8v0c0,95.5,77.4,172.8,173,172.8s173-77.4,173-172.8v0
		C881.6,612.8,804.2,535.4,708.7,535.4z"/>
</g>
</svg>
